<?xml version="1.0" encoding="UTF-8" standalone="no"?>
<svg width="118.533mm" height="192.476mm"
 xmlns="http://www.w3.org/2000/svg" xmlns:xlink="http://www.w3.org/1999/xlink"  version="1.2" baseProfile="tiny">
<title>Qt SVG Document</title>
<desc>Generated with Qt</desc>
<defs>
</defs>
<g fill="none" stroke="black" stroke-width="1" fill-rule="evenodd" stroke-linecap="square" stroke-linejoin="bevel" >

<g fill="#ffffff" fill-opacity="1" stroke="none" transform="matrix(1,0,0,1,0,0)"
font-family="Tahoma" font-size="12.5" font-weight="0" font-style="normal" 
>
<path vector-effect="none" fill-rule="evenodd" d="M0,0 L420,0 L420,682 L0,682 L0,0"/>
</g>

<g fill="#ffffff" fill-opacity="1" stroke="#000000" stroke-opacity="1" stroke-width="2" stroke-linecap="butt" stroke-linejoin="miter" stroke-miterlimit="2" transform="matrix(1,0,0,1,0,0)"
font-family="Tahoma" font-size="12.5" font-weight="0" font-style="normal" 
>
<path vector-effect="none" fill-rule="evenodd" d="M150,17 C150,8.71573 156.716,2 165,2 L255,2 C263.284,2 270,8.71573 270,17 C270,25.2843 263.284,32 255,32 L165,32 C156.716,32 150,25.2843 150,17 "/>
<text fill="#000000" fill-opacity="1" stroke="none" xml:space="preserve" x="185" y="22" font-family="Tahoma" font-size="12.5" font-weight="0" font-style="normal" 
 >НАЧАЛО</text>
<polyline fill="none" vector-effect="none" points="210,32 210,40.5 " />
<polyline fill="none" vector-effect="none" points="210,631.5 210,650 " />
<polyline fill="none" vector-effect="none" points="207,638 210,650 " />
<polyline fill="none" vector-effect="none" points="210,650 213,638 " />
<path vector-effect="none" fill-rule="evenodd" d="M150,665 C150,656.716 156.716,650 165,650 L255,650 C263.284,650 270,656.716 270,665 C270,673.284 263.284,680 255,680 L165,680 C156.716,680 150,673.284 150,665 "/>
<text fill="#000000" fill-opacity="1" stroke="none" xml:space="preserve" x="190" y="670" font-family="Tahoma" font-size="12.5" font-weight="0" font-style="normal" 
 >КОНЕЦ</text>
</g>

<g fill="#ffffff" fill-opacity="1" stroke="none" transform="matrix(1,0,0,1,0,0)"
font-family="Tahoma" font-size="12.5" font-weight="0" font-style="normal" 
>
<path vector-effect="none" fill-rule="evenodd" d="M10,40 L410,40 L410,632 L10,632 L10,40"/>
</g>

<g fill="#ffffff" fill-opacity="1" stroke="#000000" stroke-opacity="1" stroke-width="2" stroke-linecap="butt" stroke-linejoin="miter" stroke-miterlimit="2" transform="matrix(1,0,0,1,0,0)"
font-family="Tahoma" font-size="12.5" font-weight="0" font-style="normal" 
>
<polyline fill="none" vector-effect="none" points="210,39.5 210,632.5 " />
</g>

<g fill="#ffffff" fill-opacity="1" stroke="none" transform="matrix(1,0,0,1,0,0)"
font-family="Tahoma" font-size="12.5" font-weight="0" font-style="normal" 
>
<path vector-effect="none" fill-rule="evenodd" d="M130,40 L290,40 L290,126 L130,126 L130,40"/>
</g>

<g fill="#ffffff" fill-opacity="1" stroke="#000000" stroke-opacity="1" stroke-width="2" stroke-linecap="butt" stroke-linejoin="miter" stroke-miterlimit="2" transform="matrix(1,0,0,1,0,0)"
font-family="Tahoma" font-size="12.5" font-weight="0" font-style="normal" 
>
<polyline fill="none" vector-effect="none" points="210,39.5 210,56 " />
<polyline fill="none" vector-effect="none" points="207,44 210,56 " />
<polyline fill="none" vector-effect="none" points="210,56 213,44 " />
<path vector-effect="none" fill-rule="evenodd" d="M165,56 L285,56 L255,116 L135,116 L165,56"/>
<text fill="#000000" fill-opacity="1" stroke="none" xml:space="preserve" x="191.578" y="91" font-family="Tahoma" font-size="12.5" font-weight="0" font-style="normal" 
 >a, b, p</text>
<polyline fill="none" vector-effect="none" points="210,116 210,126.5 " />
</g>

<g fill="#ffffff" fill-opacity="1" stroke="none" transform="matrix(1,0,0,1,0,0)"
font-family="Tahoma" font-size="12.5" font-weight="0" font-style="normal" 
>
<path vector-effect="none" fill-rule="evenodd" d="M10,126 L410,126 L410,632 L10,632 L10,126"/>
</g>

<g fill="#ffffff" fill-opacity="1" stroke="#000000" stroke-opacity="1" stroke-width="2" stroke-linecap="butt" stroke-linejoin="miter" stroke-miterlimit="2" transform="matrix(1,0,0,1,0,0)"
font-family="Tahoma" font-size="12.5" font-weight="0" font-style="normal" 
>
<polyline fill="none" vector-effect="none" points="210,125.5 210,158 " />
<polyline fill="none" vector-effect="none" points="207,146 210,158 " />
<polyline fill="none" vector-effect="none" points="210,158 213,146 " />
<path vector-effect="none" fill-rule="evenodd" d="M150,188 L210,158 L270,188 L210,218 L150,188"/>
<text fill="#000000" fill-opacity="1" stroke="none" xml:space="preserve" x="187.5" y="193" font-family="Tahoma" font-size="12.5" font-weight="0" font-style="normal" 
 >x &lt;= b?</text>
<polyline fill="none" vector-effect="none" points="210,218 210,234 " />
<polyline fill="none" vector-effect="none" points="270,188 405,188 405,628 210,628 210,632.5 " />
<text fill="#000000" fill-opacity="1" stroke="none" xml:space="preserve" x="214" y="230" font-family="Tahoma" font-size="12.5" font-weight="0" font-style="normal" 
 >Да</text>
<text fill="#000000" fill-opacity="1" stroke="none" xml:space="preserve" x="275" y="184" font-family="Tahoma" font-size="12.5" font-weight="0" font-style="normal" 
 >Нет</text>
<polyline fill="none" vector-effect="none" points="210,600 210,604 15,604 15,134 210,134 " />
<polyline fill="none" vector-effect="none" points="198,131 210,134 " />
<polyline fill="none" vector-effect="none" points="210,134 198,137 " />
</g>

<g fill="#ffffff" fill-opacity="1" stroke="none" transform="matrix(1,0,0,1,0,0)"
font-family="Tahoma" font-size="12.5" font-weight="0" font-style="normal" 
>
<path vector-effect="none" fill-rule="evenodd" d="M20,234 L400,234 L400,600 L20,600 L20,234"/>
</g>

<g fill="#ffffff" fill-opacity="1" stroke="#000000" stroke-opacity="1" stroke-width="2" stroke-linecap="butt" stroke-linejoin="miter" stroke-miterlimit="2" transform="matrix(1,0,0,1,0,0)"
font-family="Tahoma" font-size="12.5" font-weight="0" font-style="normal" 
>
<polyline fill="none" vector-effect="none" points="210,233.5 210,600.5 " />
</g>

<g fill="#ffffff" fill-opacity="1" stroke="none" transform="matrix(1,0,0,1,0,0)"
font-family="Tahoma" font-size="12.5" font-weight="0" font-style="normal" 
>
<path vector-effect="none" fill-rule="evenodd" d="M20,234 L400,234 L400,428 L20,428 L20,234"/>
</g>

<g fill="#ffffff" fill-opacity="1" stroke="#000000" stroke-opacity="1" stroke-width="2" stroke-linecap="butt" stroke-linejoin="miter" stroke-miterlimit="2" transform="matrix(1,0,0,1,0,0)"
font-family="Tahoma" font-size="12.5" font-weight="0" font-style="normal" 
>
<polyline fill="none" vector-effect="none" points="210,233.5 210,250 " />
<polyline fill="none" vector-effect="none" points="207,238 210,250 " />
<polyline fill="none" vector-effect="none" points="210,250 213,238 " />
<path vector-effect="none" fill-rule="evenodd" d="M150,280 L210,250 L270,280 L210,310 L150,280"/>
<text fill="#000000" fill-opacity="1" stroke="none" xml:space="preserve" x="188" y="285" font-family="Tahoma" font-size="12.5" font-weight="0" font-style="normal" 
 >|x|&lt; 2?</text>
<polyline fill="none" vector-effect="none" points="150,280 120,280 120,326 " />
<text fill="#000000" fill-opacity="1" stroke="none" xml:space="preserve" x="126" y="276" font-family="Tahoma" font-size="12.5" font-weight="0" font-style="normal" 
 >Да</text>
<polyline fill="none" vector-effect="none" points="270,280 300,280 300,326 " />
<text fill="#000000" fill-opacity="1" stroke="none" xml:space="preserve" x="275" y="276" font-family="Tahoma" font-size="12.5" font-weight="0" font-style="normal" 
 >Нет</text>
<polyline fill="none" vector-effect="none" points="120,412 120,420 300,420 300,412 " />
<polyline fill="none" vector-effect="none" points="210,420 210,428.5 " />
</g>

<g fill="#ffffff" fill-opacity="1" stroke="none" transform="matrix(1,0,0,1,0,0)"
font-family="Tahoma" font-size="12.5" font-weight="0" font-style="normal" 
>
<path vector-effect="none" fill-rule="evenodd" d="M30,326 L210,326 L210,412 L30,412 L30,326"/>
</g>

<g fill="#ffffff" fill-opacity="1" stroke="#000000" stroke-opacity="1" stroke-width="2" stroke-linecap="butt" stroke-linejoin="miter" stroke-miterlimit="2" transform="matrix(1,0,0,1,0,0)"
font-family="Tahoma" font-size="12.5" font-weight="0" font-style="normal" 
>
<polyline fill="none" vector-effect="none" points="120,325.5 120,412.5 " />
</g>

<g fill="#ffffff" fill-opacity="1" stroke="none" transform="matrix(1,0,0,1,0,0)"
font-family="Tahoma" font-size="12.5" font-weight="0" font-style="normal" 
>
<path vector-effect="none" fill-rule="evenodd" d="M50,326 L190,326 L190,412 L50,412 L50,326"/>
</g>

<g fill="#ffffff" fill-opacity="1" stroke="#000000" stroke-opacity="1" stroke-width="2" stroke-linecap="butt" stroke-linejoin="miter" stroke-miterlimit="2" transform="matrix(1,0,0,1,0,0)"
font-family="Tahoma" font-size="12.5" font-weight="0" font-style="normal" 
>
<polyline fill="none" vector-effect="none" points="120,325.5 120,342 " />
<polyline fill="none" vector-effect="none" points="117,330 120,342 " />
<polyline fill="none" vector-effect="none" points="120,342 123,330 " />
<path vector-effect="none" fill-rule="evenodd" d="M60,342 L180,342 L180,402 L60,402 L60,342"/>
<text fill="#000000" fill-opacity="1" stroke="none" xml:space="preserve" x="67.0625" y="369" font-family="Tahoma" font-size="12.5" font-weight="0" font-style="normal" 
 >function := 3*(cos</text>
<text fill="#000000" fill-opacity="1" stroke="none" xml:space="preserve" x="103" y="385" font-family="Tahoma" font-size="12.5" font-weight="0" font-style="normal" 
 >5x)^5</text>
<polyline fill="none" vector-effect="none" points="120,402 120,412.5 " />
</g>

<g fill="#ffffff" fill-opacity="1" stroke="none" transform="matrix(1,0,0,1,0,0)"
font-family="Tahoma" font-size="12.5" font-weight="0" font-style="normal" 
>
<path vector-effect="none" fill-rule="evenodd" d="M210,326 L390,326 L390,412 L210,412 L210,326"/>
</g>

<g fill="#ffffff" fill-opacity="1" stroke="#000000" stroke-opacity="1" stroke-width="2" stroke-linecap="butt" stroke-linejoin="miter" stroke-miterlimit="2" transform="matrix(1,0,0,1,0,0)"
font-family="Tahoma" font-size="12.5" font-weight="0" font-style="normal" 
>
<polyline fill="none" vector-effect="none" points="300,325.5 300,412.5 " />
</g>

<g fill="#ffffff" fill-opacity="1" stroke="none" transform="matrix(1,0,0,1,0,0)"
font-family="Tahoma" font-size="12.5" font-weight="0" font-style="normal" 
>
<path vector-effect="none" fill-rule="evenodd" d="M230,326 L370,326 L370,412 L230,412 L230,326"/>
</g>

<g fill="#ffffff" fill-opacity="1" stroke="#000000" stroke-opacity="1" stroke-width="2" stroke-linecap="butt" stroke-linejoin="miter" stroke-miterlimit="2" transform="matrix(1,0,0,1,0,0)"
font-family="Tahoma" font-size="12.5" font-weight="0" font-style="normal" 
>
<polyline fill="none" vector-effect="none" points="300,325.5 300,342 " />
<polyline fill="none" vector-effect="none" points="297,330 300,342 " />
<polyline fill="none" vector-effect="none" points="300,342 303,330 " />
<path vector-effect="none" fill-rule="evenodd" d="M240,342 L360,342 L360,402 L240,402 L240,342"/>
<text fill="#000000" fill-opacity="1" stroke="none" xml:space="preserve" x="245.562" y="369" font-family="Tahoma" font-size="12.5" font-weight="0" font-style="normal" 
 >function := e^(5*x</text>
<text fill="#000000" fill-opacity="1" stroke="none" xml:space="preserve" x="297.5" y="385" font-family="Tahoma" font-size="12.5" font-weight="0" font-style="normal" 
 >)</text>
<polyline fill="none" vector-effect="none" points="300,402 300,412.5 " />
</g>

<g fill="#ffffff" fill-opacity="1" stroke="none" transform="matrix(1,0,0,1,0,0)"
font-family="Tahoma" font-size="12.5" font-weight="0" font-style="normal" 
>
<path vector-effect="none" fill-rule="evenodd" d="M130,428 L290,428 L290,514 L130,514 L130,428"/>
</g>

<g fill="#ffffff" fill-opacity="1" stroke="#000000" stroke-opacity="1" stroke-width="2" stroke-linecap="butt" stroke-linejoin="miter" stroke-miterlimit="2" transform="matrix(1,0,0,1,0,0)"
font-family="Tahoma" font-size="12.5" font-weight="0" font-style="normal" 
>
<polyline fill="none" vector-effect="none" points="210,428 210,444 " />
<polyline fill="none" vector-effect="none" points="207,432 210,444 " />
<polyline fill="none" vector-effect="none" points="210,444 213,432 " />
<path vector-effect="none" fill-rule="evenodd" d="M165,444 L285,444 L255,504 L135,504 L165,444"/>
<text fill="#000000" fill-opacity="1" stroke="none" xml:space="preserve" x="180.562" y="479" font-family="Tahoma" font-size="12.5" font-weight="0" font-style="normal" 
 >x, function</text>
<polyline fill="none" vector-effect="none" points="210,504 210,514.5 " />
</g>

<g fill="#ffffff" fill-opacity="1" stroke="none" transform="matrix(1,0,0,1,0,0)"
font-family="Tahoma" font-size="12.5" font-weight="0" font-style="normal" 
>
<path vector-effect="none" fill-rule="evenodd" d="M140,514 L280,514 L280,600 L140,600 L140,514"/>
</g>

<g fill="#ffffff" fill-opacity="1" stroke="#000000" stroke-opacity="1" stroke-width="2" stroke-linecap="butt" stroke-linejoin="miter" stroke-miterlimit="2" transform="matrix(1,0,0,1,0,0)"
font-family="Tahoma" font-size="12.5" font-weight="0" font-style="normal" 
>
<polyline fill="none" vector-effect="none" points="210,513.5 210,530 " />
<polyline fill="none" vector-effect="none" points="207,518 210,530 " />
<polyline fill="none" vector-effect="none" points="210,530 213,518 " />
<path vector-effect="none" fill-rule="evenodd" d="M150,530 L270,530 L270,590 L150,590 L150,530"/>
<text fill="#000000" fill-opacity="1" stroke="none" xml:space="preserve" x="185.5" y="565" font-family="Tahoma" font-size="12.5" font-weight="0" font-style="normal" 
 >x := x+p</text>
<polyline fill="none" vector-effect="none" points="210,590 210,600.5 " />
</g>
</g>
</svg>
