<?xml version="1.0" encoding="UTF-8" standalone="no"?>
<svg width="118.533mm" height="192.476mm"
 xmlns="http://www.w3.org/2000/svg" xmlns:xlink="http://www.w3.org/1999/xlink"  version="1.2" baseProfile="tiny">
<title>Qt SVG Document</title>
<desc>Generated with Qt</desc>
<defs>
</defs>
<g fill="none" stroke="black" stroke-width="1" fill-rule="evenodd" stroke-linecap="square" stroke-linejoin="bevel" >

<g fill="#ffffff" fill-opacity="1" stroke="none" transform="matrix(1,0,0,1,0,0)"
font-family="Tahoma" font-size="12.5" font-weight="0" font-style="normal" 
>
<path vector-effect="none" fill-rule="evenodd" d="M0,0 L420,0 L420,682 L0,682 L0,0"/>
</g>

<g fill="#ffffff" fill-opacity="1" stroke="#000000" stroke-opacity="1" stroke-width="2" stroke-linecap="butt" stroke-linejoin="miter" stroke-miterlimit="2" transform="matrix(1,0,0,1,0,0)"
font-family="Tahoma" font-size="12.5" font-weight="0" font-style="normal" 
>
<path vector-effect="none" fill-rule="evenodd" d="M150,17 C150,8.71573 156.716,2 165,2 L255,2 C263.284,2 270,8.71573 270,17 C270,25.2843 263.284,32 255,32 L165,32 C156.716,32 150,25.2843 150,17 "/>
<text fill="#000000" fill-opacity="1" stroke="none" xml:space="preserve" x="185" y="22" font-family="Tahoma" font-size="12.5" font-weight="0" font-style="normal" 
 >НАЧАЛО</text>
<polyline fill="none" vector-effect="none" points="210,32 210,40.5 " />
<polyline fill="none" vector-effect="none" points="210,631.5 210,650 " />
<polyline fill="none" vector-effect="none" points="207,638 210,650 " />
<polyline fill="none" vector-effect="none" points="210,650 213,638 " />
<path vector-effect="none" fill-rule="evenodd" d="M150,665 C150,656.716 156.716,650 165,650 L255,650 C263.284,650 270,656.716 270,665 C270,673.284 263.284,680 255,680 L165,680 C156.716,680 150,673.284 150,665 "/>
<text fill="#000000" fill-opacity="1" stroke="none" xml:space="preserve" x="190" y="670" font-family="Tahoma" font-size="12.5" font-weight="0" font-style="normal" 
 >КОНЕЦ</text>
</g>

<g fill="#ffffff" fill-opacity="1" stroke="none" transform="matrix(1,0,0,1,0,0)"
font-family="Tahoma" font-size="12.5" font-weight="0" font-style="normal" 
>
<path vector-effect="none" fill-rule="evenodd" d="M10,40 L410,40 L410,632 L10,632 L10,40"/>
</g>

<g fill="#ffffff" fill-opacity="1" stroke="#000000" stroke-opacity="1" stroke-width="2" stroke-linecap="butt" stroke-linejoin="miter" stroke-miterlimit="2" transform="matrix(1,0,0,1,0,0)"
font-family="Tahoma" font-size="12.5" font-weight="0" font-style="normal" 
>
<polyline fill="none" vector-effect="none" points="210,39.5 210,632.5 " />
</g>

<g fill="#ffffff" fill-opacity="1" stroke="none" transform="matrix(1,0,0,1,0,0)"
font-family="Tahoma" font-size="12.5" font-weight="0" font-style="normal" 
>
<path vector-effect="none" fill-rule="evenodd" d="M130,40 L290,40 L290,126 L130,126 L130,40"/>
</g>

<g fill="#ffffff" fill-opacity="1" stroke="#000000" stroke-opacity="1" stroke-width="2" stroke-linecap="butt" stroke-linejoin="miter" stroke-miterlimit="2" transform="matrix(1,0,0,1,0,0)"
font-family="Tahoma" font-size="12.5" font-weight="0" font-style="normal" 
>
<polyline fill="none" vector-effect="none" points="210,39.5 210,56 " />
<polyline fill="none" vector-effect="none" points="207,44 210,56 " />
<polyline fill="none" vector-effect="none" points="210,56 213,44 " />
<path vector-effect="none" fill-rule="evenodd" d="M165,56 L285,56 L255,116 L135,116 L165,56"/>
<text fill="#000000" fill-opacity="1" stroke="none" xml:space="preserve" x="191.578" y="91" font-family="Tahoma" font-size="12.5" font-weight="0" font-style="normal" 
 >a, b, p</text>
<polyline fill="none" vector-effect="none" points="210,116 210,126.5 " />
</g>

<g fill="#ffffff" fill-opacity="1" stroke="none" transform="matrix(1,0,0,1,0,0)"
font-family="Tahoma" font-size="12.5" font-weight="0" font-style="normal" 
>
<path vector-effect="none" fill-rule="evenodd" d="M140,126 L280,126 L280,212 L140,212 L140,126"/>
</g>

<g fill="#ffffff" fill-opacity="1" stroke="#000000" stroke-opacity="1" stroke-width="2" stroke-linecap="butt" stroke-linejoin="miter" stroke-miterlimit="2" transform="matrix(1,0,0,1,0,0)"
font-family="Tahoma" font-size="12.5" font-weight="0" font-style="normal" 
>
<polyline fill="none" vector-effect="none" points="210,125.5 210,142 " />
<polyline fill="none" vector-effect="none" points="207,130 210,142 " />
<polyline fill="none" vector-effect="none" points="210,142 213,130 " />
<path vector-effect="none" fill-rule="evenodd" d="M150,142 L270,142 L270,202 L150,202 L150,142"/>
<text fill="#000000" fill-opacity="1" stroke="none" xml:space="preserve" x="194" y="177" font-family="Tahoma" font-size="12.5" font-weight="0" font-style="normal" 
 >i := a</text>
<polyline fill="none" vector-effect="none" points="210,202 210,212.5 " />
</g>

<g fill="#ffffff" fill-opacity="1" stroke="none" transform="matrix(1,0,0,1,0,0)"
font-family="Tahoma" font-size="12.5" font-weight="0" font-style="normal" 
>
<path vector-effect="none" fill-rule="evenodd" d="M10,212 L410,212 L410,632 L10,632 L10,212"/>
</g>

<g fill="#ffffff" fill-opacity="1" stroke="#000000" stroke-opacity="1" stroke-width="2" stroke-linecap="butt" stroke-linejoin="miter" stroke-miterlimit="2" transform="matrix(1,0,0,1,0,0)"
font-family="Tahoma" font-size="12.5" font-weight="0" font-style="normal" 
>
<polyline fill="none" vector-effect="none" points="210,211.5 210,244 " />
<polyline fill="none" vector-effect="none" points="207,232 210,244 " />
<polyline fill="none" vector-effect="none" points="210,244 213,232 " />
<path vector-effect="none" fill-rule="evenodd" d="M150,274 L210,244 L270,274 L210,304 L150,274"/>
<text fill="#000000" fill-opacity="1" stroke="none" xml:space="preserve" x="189" y="279" font-family="Tahoma" font-size="12.5" font-weight="0" font-style="normal" 
 >i &lt;= b?</text>
<polyline fill="none" vector-effect="none" points="210,304 210,320 " />
<polyline fill="none" vector-effect="none" points="270,274 405,274 405,628 210,628 210,632.5 " />
<text fill="#000000" fill-opacity="1" stroke="none" xml:space="preserve" x="214" y="316" font-family="Tahoma" font-size="12.5" font-weight="0" font-style="normal" 
 >Да</text>
<text fill="#000000" fill-opacity="1" stroke="none" xml:space="preserve" x="275" y="270" font-family="Tahoma" font-size="12.5" font-weight="0" font-style="normal" 
 >Нет</text>
<polyline fill="none" vector-effect="none" points="210,600 210,604 15,604 15,220 210,220 " />
<polyline fill="none" vector-effect="none" points="198,217 210,220 " />
<polyline fill="none" vector-effect="none" points="210,220 198,223 " />
</g>

<g fill="#ffffff" fill-opacity="1" stroke="none" transform="matrix(1,0,0,1,0,0)"
font-family="Tahoma" font-size="12.5" font-weight="0" font-style="normal" 
>
<path vector-effect="none" fill-rule="evenodd" d="M20,320 L400,320 L400,600 L20,600 L20,320"/>
</g>

<g fill="#ffffff" fill-opacity="1" stroke="#000000" stroke-opacity="1" stroke-width="2" stroke-linecap="butt" stroke-linejoin="miter" stroke-miterlimit="2" transform="matrix(1,0,0,1,0,0)"
font-family="Tahoma" font-size="12.5" font-weight="0" font-style="normal" 
>
<polyline fill="none" vector-effect="none" points="210,319.5 210,600.5 " />
</g>

<g fill="#ffffff" fill-opacity="1" stroke="none" transform="matrix(1,0,0,1,0,0)"
font-family="Tahoma" font-size="12.5" font-weight="0" font-style="normal" 
>
<path vector-effect="none" fill-rule="evenodd" d="M20,320 L400,320 L400,514 L20,514 L20,320"/>
</g>

<g fill="#ffffff" fill-opacity="1" stroke="#000000" stroke-opacity="1" stroke-width="2" stroke-linecap="butt" stroke-linejoin="miter" stroke-miterlimit="2" transform="matrix(1,0,0,1,0,0)"
font-family="Tahoma" font-size="12.5" font-weight="0" font-style="normal" 
>
<polyline fill="none" vector-effect="none" points="210,319.5 210,336 " />
<polyline fill="none" vector-effect="none" points="207,324 210,336 " />
<polyline fill="none" vector-effect="none" points="210,336 213,324 " />
<path vector-effect="none" fill-rule="evenodd" d="M150,366 L210,336 L270,366 L210,396 L150,366"/>
<text fill="#000000" fill-opacity="1" stroke="none" xml:space="preserve" x="190" y="371" font-family="Tahoma" font-size="12.5" font-weight="0" font-style="normal" 
 >|x|&lt;5?</text>
<polyline fill="none" vector-effect="none" points="150,366 120,366 120,412 " />
<text fill="#000000" fill-opacity="1" stroke="none" xml:space="preserve" x="126" y="362" font-family="Tahoma" font-size="12.5" font-weight="0" font-style="normal" 
 >Да</text>
<polyline fill="none" vector-effect="none" points="270,366 300,366 300,412 " />
<text fill="#000000" fill-opacity="1" stroke="none" xml:space="preserve" x="275" y="362" font-family="Tahoma" font-size="12.5" font-weight="0" font-style="normal" 
 >Нет</text>
<polyline fill="none" vector-effect="none" points="120,498 120,506 300,506 300,498 " />
<polyline fill="none" vector-effect="none" points="210,506 210,514.5 " />
</g>

<g fill="#ffffff" fill-opacity="1" stroke="none" transform="matrix(1,0,0,1,0,0)"
font-family="Tahoma" font-size="12.5" font-weight="0" font-style="normal" 
>
<path vector-effect="none" fill-rule="evenodd" d="M30,412 L210,412 L210,498 L30,498 L30,412"/>
</g>

<g fill="#ffffff" fill-opacity="1" stroke="#000000" stroke-opacity="1" stroke-width="2" stroke-linecap="butt" stroke-linejoin="miter" stroke-miterlimit="2" transform="matrix(1,0,0,1,0,0)"
font-family="Tahoma" font-size="12.5" font-weight="0" font-style="normal" 
>
<polyline fill="none" vector-effect="none" points="120,411.5 120,498.5 " />
</g>

<g fill="#ffffff" fill-opacity="1" stroke="none" transform="matrix(1,0,0,1,0,0)"
font-family="Tahoma" font-size="12.5" font-weight="0" font-style="normal" 
>
<path vector-effect="none" fill-rule="evenodd" d="M50,412 L190,412 L190,498 L50,498 L50,412"/>
</g>

<g fill="#ffffff" fill-opacity="1" stroke="#000000" stroke-opacity="1" stroke-width="2" stroke-linecap="butt" stroke-linejoin="miter" stroke-miterlimit="2" transform="matrix(1,0,0,1,0,0)"
font-family="Tahoma" font-size="12.5" font-weight="0" font-style="normal" 
>
<polyline fill="none" vector-effect="none" points="120,411.5 120,428 " />
<polyline fill="none" vector-effect="none" points="117,416 120,428 " />
<polyline fill="none" vector-effect="none" points="120,428 123,416 " />
<path vector-effect="none" fill-rule="evenodd" d="M60,428 L180,428 L180,488 L60,488 L60,428"/>
<text fill="#000000" fill-opacity="1" stroke="none" xml:space="preserve" x="68.1406" y="463" font-family="Tahoma" font-size="12.5" font-weight="0" font-style="normal" 
 >f := sin²2x-6cos³x</text>
<polyline fill="none" vector-effect="none" points="120,488 120,498.5 " />
</g>

<g fill="#ffffff" fill-opacity="1" stroke="none" transform="matrix(1,0,0,1,0,0)"
font-family="Tahoma" font-size="12.5" font-weight="0" font-style="normal" 
>
<path vector-effect="none" fill-rule="evenodd" d="M210,412 L390,412 L390,498 L210,498 L210,412"/>
</g>

<g fill="#ffffff" fill-opacity="1" stroke="#000000" stroke-opacity="1" stroke-width="2" stroke-linecap="butt" stroke-linejoin="miter" stroke-miterlimit="2" transform="matrix(1,0,0,1,0,0)"
font-family="Tahoma" font-size="12.5" font-weight="0" font-style="normal" 
>
<polyline fill="none" vector-effect="none" points="300,411.5 300,498.5 " />
</g>

<g fill="#ffffff" fill-opacity="1" stroke="none" transform="matrix(1,0,0,1,0,0)"
font-family="Tahoma" font-size="12.5" font-weight="0" font-style="normal" 
>
<path vector-effect="none" fill-rule="evenodd" d="M230,412 L370,412 L370,498 L230,498 L230,412"/>
</g>

<g fill="#ffffff" fill-opacity="1" stroke="#000000" stroke-opacity="1" stroke-width="2" stroke-linecap="butt" stroke-linejoin="miter" stroke-miterlimit="2" transform="matrix(1,0,0,1,0,0)"
font-family="Tahoma" font-size="12.5" font-weight="0" font-style="normal" 
>
<polyline fill="none" vector-effect="none" points="300,411.5 300,428 " />
<polyline fill="none" vector-effect="none" points="297,416 300,428 " />
<polyline fill="none" vector-effect="none" points="300,428 303,416 " />
<path vector-effect="none" fill-rule="evenodd" d="M240,428 L360,428 L360,488 L240,488 L240,428"/>
<text fill="#000000" fill-opacity="1" stroke="none" xml:space="preserve" x="267" y="463" font-family="Tahoma" font-size="12.5" font-weight="0" font-style="normal" 
 >f := tg2x+1</text>
<polyline fill="none" vector-effect="none" points="300,488 300,498.5 " />
</g>

<g fill="#ffffff" fill-opacity="1" stroke="none" transform="matrix(1,0,0,1,0,0)"
font-family="Tahoma" font-size="12.5" font-weight="0" font-style="normal" 
>
<path vector-effect="none" fill-rule="evenodd" d="M140,514 L280,514 L280,600 L140,600 L140,514"/>
</g>

<g fill="#ffffff" fill-opacity="1" stroke="#000000" stroke-opacity="1" stroke-width="2" stroke-linecap="butt" stroke-linejoin="miter" stroke-miterlimit="2" transform="matrix(1,0,0,1,0,0)"
font-family="Tahoma" font-size="12.5" font-weight="0" font-style="normal" 
>
<polyline fill="none" vector-effect="none" points="210,513.5 210,530 " />
<polyline fill="none" vector-effect="none" points="207,518 210,530 " />
<polyline fill="none" vector-effect="none" points="210,530 213,518 " />
<path vector-effect="none" fill-rule="evenodd" d="M150,530 L270,530 L270,590 L150,590 L150,530"/>
<text fill="#000000" fill-opacity="1" stroke="none" xml:space="preserve" x="184.5" y="565" font-family="Tahoma" font-size="12.5" font-weight="0" font-style="normal" 
 >i := i + p</text>
<polyline fill="none" vector-effect="none" points="210,590 210,600.5 " />
</g>
</g>
</svg>
