<?xml version="1.0" encoding="UTF-8" standalone="no"?>
<svg width="174.978mm" height="247.227mm"
 xmlns="http://www.w3.org/2000/svg" xmlns:xlink="http://www.w3.org/1999/xlink"  version="1.2" baseProfile="tiny">
<title>Qt SVG Document</title>
<desc>Generated with Qt</desc>
<defs>
</defs>
<g fill="none" stroke="black" stroke-width="1" fill-rule="evenodd" stroke-linecap="square" stroke-linejoin="bevel" >

<g fill="#ffffff" fill-opacity="1" stroke="none" transform="matrix(1,0,0,1,0,0)"
font-family="Tahoma" font-size="12.5" font-weight="0" font-style="normal" 
>
<path vector-effect="none" fill-rule="evenodd" d="M0,0 L620,0 L620,876 L0,876 L0,0"/>
</g>

<g fill="#ffffff" fill-opacity="1" stroke="#000000" stroke-opacity="1" stroke-width="2" stroke-linecap="butt" stroke-linejoin="miter" stroke-miterlimit="2" transform="matrix(1,0,0,1,0,0)"
font-family="Tahoma" font-size="12.5" font-weight="0" font-style="normal" 
>
<path vector-effect="none" fill-rule="evenodd" d="M250,17 C250,8.71573 256.716,2 265,2 L355,2 C363.284,2 370,8.71573 370,17 C370,25.2843 363.284,32 355,32 L265,32 C256.716,32 250,25.2843 250,17 "/>
<text fill="#000000" fill-opacity="1" stroke="none" xml:space="preserve" x="284" y="22" font-family="Tahoma" font-size="12.5" font-weight="0" font-style="normal" 
 >НАЧАЛО</text>
<polyline fill="none" vector-effect="none" points="310,32 310,40.5 " />
<polyline fill="none" vector-effect="none" points="310,825.5 310,844 " />
<polyline fill="none" vector-effect="none" points="307,832 310,844 " />
<polyline fill="none" vector-effect="none" points="310,844 313,832 " />
<path vector-effect="none" fill-rule="evenodd" d="M250,859 C250,850.716 256.716,844 265,844 L355,844 C363.284,844 370,850.716 370,859 C370,867.284 363.284,874 355,874 L265,874 C256.716,874 250,867.284 250,859 "/>
<text fill="#000000" fill-opacity="1" stroke="none" xml:space="preserve" x="289" y="864" font-family="Tahoma" font-size="12.5" font-weight="0" font-style="normal" 
 >КОНЕЦ</text>
</g>

<g fill="#ffffff" fill-opacity="1" stroke="none" transform="matrix(1,0,0,1,0,0)"
font-family="Tahoma" font-size="12.5" font-weight="0" font-style="normal" 
>
<path vector-effect="none" fill-rule="evenodd" d="M10,40 L610,40 L610,826 L10,826 L10,40"/>
</g>

<g fill="#ffffff" fill-opacity="1" stroke="#000000" stroke-opacity="1" stroke-width="2" stroke-linecap="butt" stroke-linejoin="miter" stroke-miterlimit="2" transform="matrix(1,0,0,1,0,0)"
font-family="Tahoma" font-size="12.5" font-weight="0" font-style="normal" 
>
<polyline fill="none" vector-effect="none" points="310,39.5 310,826.5 " />
</g>

<g fill="#ffffff" fill-opacity="1" stroke="none" transform="matrix(1,0,0,1,0,0)"
font-family="Tahoma" font-size="12.5" font-weight="0" font-style="normal" 
>
<path vector-effect="none" fill-rule="evenodd" d="M230,40 L390,40 L390,126 L230,126 L230,40"/>
</g>

<g fill="#ffffff" fill-opacity="1" stroke="#000000" stroke-opacity="1" stroke-width="2" stroke-linecap="butt" stroke-linejoin="miter" stroke-miterlimit="2" transform="matrix(1,0,0,1,0,0)"
font-family="Tahoma" font-size="12.5" font-weight="0" font-style="normal" 
>
<polyline fill="none" vector-effect="none" points="310,39.5 310,56 " />
<polyline fill="none" vector-effect="none" points="307,44 310,56 " />
<polyline fill="none" vector-effect="none" points="310,56 313,44 " />
<path vector-effect="none" fill-rule="evenodd" d="M265,56 L385,56 L355,116 L235,116 L265,56"/>
<text fill="#000000" fill-opacity="1" stroke="none" xml:space="preserve" x="295.547" y="91" font-family="Tahoma" font-size="12.5" font-weight="0" font-style="normal" 
 >a.b.p</text>
<polyline fill="none" vector-effect="none" points="310,116 310,126.5 " />
</g>

<g fill="#ffffff" fill-opacity="1" stroke="none" transform="matrix(1,0,0,1,0,0)"
font-family="Tahoma" font-size="12.5" font-weight="0" font-style="normal" 
>
<path vector-effect="none" fill-rule="evenodd" d="M240,126 L380,126 L380,212 L240,212 L240,126"/>
</g>

<g fill="#ffffff" fill-opacity="1" stroke="#000000" stroke-opacity="1" stroke-width="2" stroke-linecap="butt" stroke-linejoin="miter" stroke-miterlimit="2" transform="matrix(1,0,0,1,0,0)"
font-family="Tahoma" font-size="12.5" font-weight="0" font-style="normal" 
>
<polyline fill="none" vector-effect="none" points="310,125.5 310,142 " />
<polyline fill="none" vector-effect="none" points="307,130 310,142 " />
<polyline fill="none" vector-effect="none" points="310,142 313,130 " />
<path vector-effect="none" fill-rule="evenodd" d="M250,142 L370,142 L370,202 L250,202 L250,142"/>
<text fill="#000000" fill-opacity="1" stroke="none" xml:space="preserve" x="292.5" y="177" font-family="Tahoma" font-size="12.5" font-weight="0" font-style="normal" 
 >x := a</text>
<polyline fill="none" vector-effect="none" points="310,202 310,212.5 " />
</g>

<g fill="#ffffff" fill-opacity="1" stroke="none" transform="matrix(1,0,0,1,0,0)"
font-family="Tahoma" font-size="12.5" font-weight="0" font-style="normal" 
>
<path vector-effect="none" fill-rule="evenodd" d="M10,212 L610,212 L610,826 L10,826 L10,212"/>
</g>

<g fill="#ffffff" fill-opacity="1" stroke="#000000" stroke-opacity="1" stroke-width="2" stroke-linecap="butt" stroke-linejoin="miter" stroke-miterlimit="2" transform="matrix(1,0,0,1,0,0)"
font-family="Tahoma" font-size="12.5" font-weight="0" font-style="normal" 
>
<polyline fill="none" vector-effect="none" points="310,211.5 310,244 " />
<polyline fill="none" vector-effect="none" points="307,232 310,244 " />
<polyline fill="none" vector-effect="none" points="310,244 313,232 " />
<path vector-effect="none" fill-rule="evenodd" d="M250,274 L310,244 L370,274 L310,304 L250,274"/>
<text fill="#000000" fill-opacity="1" stroke="none" xml:space="preserve" x="288.5" y="279" font-family="Tahoma" font-size="12.5" font-weight="0" font-style="normal" 
 >i &lt;= b?</text>
<polyline fill="none" vector-effect="none" points="310,304 310,320 " />
<polyline fill="none" vector-effect="none" points="370,274 605,274 605,822 310,822 310,826.5 " />
<text fill="#000000" fill-opacity="1" stroke="none" xml:space="preserve" x="314" y="316" font-family="Tahoma" font-size="12.5" font-weight="0" font-style="normal" 
 >Да</text>
<text fill="#000000" fill-opacity="1" stroke="none" xml:space="preserve" x="375" y="270" font-family="Tahoma" font-size="12.5" font-weight="0" font-style="normal" 
 >Нет</text>
<polyline fill="none" vector-effect="none" points="310,794 310,798 15,798 15,220 310,220 " />
<polyline fill="none" vector-effect="none" points="298,217 310,220 " />
<polyline fill="none" vector-effect="none" points="310,220 298,223 " />
</g>

<g fill="#ffffff" fill-opacity="1" stroke="none" transform="matrix(1,0,0,1,0,0)"
font-family="Tahoma" font-size="12.5" font-weight="0" font-style="normal" 
>
<path vector-effect="none" fill-rule="evenodd" d="M20,320 L600,320 L600,794 L20,794 L20,320"/>
</g>

<g fill="#ffffff" fill-opacity="1" stroke="#000000" stroke-opacity="1" stroke-width="2" stroke-linecap="butt" stroke-linejoin="miter" stroke-miterlimit="2" transform="matrix(1,0,0,1,0,0)"
font-family="Tahoma" font-size="12.5" font-weight="0" font-style="normal" 
>
<polyline fill="none" vector-effect="none" points="310,319.5 310,794.5 " />
</g>

<g fill="#ffffff" fill-opacity="1" stroke="none" transform="matrix(1,0,0,1,0,0)"
font-family="Tahoma" font-size="12.5" font-weight="0" font-style="normal" 
>
<path vector-effect="none" fill-rule="evenodd" d="M20,320 L600,320 L600,622 L20,622 L20,320"/>
</g>

<g fill="#ffffff" fill-opacity="1" stroke="#000000" stroke-opacity="1" stroke-width="2" stroke-linecap="butt" stroke-linejoin="miter" stroke-miterlimit="2" transform="matrix(1,0,0,1,0,0)"
font-family="Tahoma" font-size="12.5" font-weight="0" font-style="normal" 
>
<polyline fill="none" vector-effect="none" points="310,319.5 310,336 " />
<polyline fill="none" vector-effect="none" points="307,324 310,336 " />
<polyline fill="none" vector-effect="none" points="310,336 313,324 " />
<path vector-effect="none" fill-rule="evenodd" d="M250,366 L310,336 L370,366 L310,396 L250,366"/>
<text fill="#000000" fill-opacity="1" stroke="none" xml:space="preserve" x="288" y="371" font-family="Tahoma" font-size="12.5" font-weight="0" font-style="normal" 
 >x  &lt;  0?</text>
<polyline fill="none" vector-effect="none" points="250,366 120,366 120,412 " />
<text fill="#000000" fill-opacity="1" stroke="none" xml:space="preserve" x="226" y="362" font-family="Tahoma" font-size="12.5" font-weight="0" font-style="normal" 
 >Да</text>
<polyline fill="none" vector-effect="none" points="370,366 400,366 400,412 " />
<text fill="#000000" fill-opacity="1" stroke="none" xml:space="preserve" x="375" y="362" font-family="Tahoma" font-size="12.5" font-weight="0" font-style="normal" 
 >Нет</text>
<polyline fill="none" vector-effect="none" points="120,498 120,614 400,614 400,606 " />
<polyline fill="none" vector-effect="none" points="310,614 310,622.5 " />
</g>

<g fill="#ffffff" fill-opacity="1" stroke="none" transform="matrix(1,0,0,1,0,0)"
font-family="Tahoma" font-size="12.5" font-weight="0" font-style="normal" 
>
<path vector-effect="none" fill-rule="evenodd" d="M30,412 L210,412 L210,498 L30,498 L30,412"/>
</g>

<g fill="#ffffff" fill-opacity="1" stroke="#000000" stroke-opacity="1" stroke-width="2" stroke-linecap="butt" stroke-linejoin="miter" stroke-miterlimit="2" transform="matrix(1,0,0,1,0,0)"
font-family="Tahoma" font-size="12.5" font-weight="0" font-style="normal" 
>
<polyline fill="none" vector-effect="none" points="120,411.5 120,498.5 " />
</g>

<g fill="#ffffff" fill-opacity="1" stroke="none" transform="matrix(1,0,0,1,0,0)"
font-family="Tahoma" font-size="12.5" font-weight="0" font-style="normal" 
>
<path vector-effect="none" fill-rule="evenodd" d="M50,412 L190,412 L190,498 L50,498 L50,412"/>
</g>

<g fill="#ffffff" fill-opacity="1" stroke="#000000" stroke-opacity="1" stroke-width="2" stroke-linecap="butt" stroke-linejoin="miter" stroke-miterlimit="2" transform="matrix(1,0,0,1,0,0)"
font-family="Tahoma" font-size="12.5" font-weight="0" font-style="normal" 
>
<polyline fill="none" vector-effect="none" points="120,411.5 120,428 " />
<polyline fill="none" vector-effect="none" points="117,416 120,428 " />
<polyline fill="none" vector-effect="none" points="120,428 123,416 " />
<path vector-effect="none" fill-rule="evenodd" d="M60,428 L180,428 L180,488 L60,488 L60,428"/>
<text fill="#000000" fill-opacity="1" stroke="none" xml:space="preserve" x="68.6406" y="455" font-family="Tahoma" font-size="12.5" font-weight="0" font-style="normal" 
 >fx := sin2x-√(x^5</text>
<text fill="#000000" fill-opacity="1" stroke="none" xml:space="preserve" x="109.5" y="471" font-family="Tahoma" font-size="12.5" font-weight="0" font-style="normal" 
 >+4)</text>
<polyline fill="none" vector-effect="none" points="120,488 120,498.5 " />
</g>

<g fill="#ffffff" fill-opacity="1" stroke="none" transform="matrix(1,0,0,1,0,0)"
font-family="Tahoma" font-size="12.5" font-weight="0" font-style="normal" 
>
<path vector-effect="none" fill-rule="evenodd" d="M210,412 L590,412 L590,606 L210,606 L210,412"/>
</g>

<g fill="#ffffff" fill-opacity="1" stroke="#000000" stroke-opacity="1" stroke-width="2" stroke-linecap="butt" stroke-linejoin="miter" stroke-miterlimit="2" transform="matrix(1,0,0,1,0,0)"
font-family="Tahoma" font-size="12.5" font-weight="0" font-style="normal" 
>
<polyline fill="none" vector-effect="none" points="400,411.5 400,606.5 " />
</g>

<g fill="#ffffff" fill-opacity="1" stroke="none" transform="matrix(1,0,0,1,0,0)"
font-family="Tahoma" font-size="12.5" font-weight="0" font-style="normal" 
>
<path vector-effect="none" fill-rule="evenodd" d="M210,412 L590,412 L590,606 L210,606 L210,412"/>
</g>

<g fill="#ffffff" fill-opacity="1" stroke="#000000" stroke-opacity="1" stroke-width="2" stroke-linecap="butt" stroke-linejoin="miter" stroke-miterlimit="2" transform="matrix(1,0,0,1,0,0)"
font-family="Tahoma" font-size="12.5" font-weight="0" font-style="normal" 
>
<polyline fill="none" vector-effect="none" points="400,411.5 400,428 " />
<polyline fill="none" vector-effect="none" points="397,416 400,428 " />
<polyline fill="none" vector-effect="none" points="400,428 403,416 " />
<path vector-effect="none" fill-rule="evenodd" d="M340,458 L400,428 L460,458 L400,488 L340,458"/>
<text fill="#000000" fill-opacity="1" stroke="none" xml:space="preserve" x="377.5" y="463" font-family="Tahoma" font-size="12.5" font-weight="0" font-style="normal" 
 >x == 0?</text>
<polyline fill="none" vector-effect="none" points="340,458 310,458 310,504 " />
<text fill="#000000" fill-opacity="1" stroke="none" xml:space="preserve" x="316" y="454" font-family="Tahoma" font-size="12.5" font-weight="0" font-style="normal" 
 >Да</text>
<polyline fill="none" vector-effect="none" points="460,458 490,458 490,504 " />
<text fill="#000000" fill-opacity="1" stroke="none" xml:space="preserve" x="465" y="454" font-family="Tahoma" font-size="12.5" font-weight="0" font-style="normal" 
 >Нет</text>
<polyline fill="none" vector-effect="none" points="310,590 310,598 490,598 490,590 " />
<polyline fill="none" vector-effect="none" points="400,598 400,606.5 " />
</g>

<g fill="#ffffff" fill-opacity="1" stroke="none" transform="matrix(1,0,0,1,0,0)"
font-family="Tahoma" font-size="12.5" font-weight="0" font-style="normal" 
>
<path vector-effect="none" fill-rule="evenodd" d="M220,504 L400,504 L400,590 L220,590 L220,504"/>
</g>

<g fill="#ffffff" fill-opacity="1" stroke="#000000" stroke-opacity="1" stroke-width="2" stroke-linecap="butt" stroke-linejoin="miter" stroke-miterlimit="2" transform="matrix(1,0,0,1,0,0)"
font-family="Tahoma" font-size="12.5" font-weight="0" font-style="normal" 
>
<polyline fill="none" vector-effect="none" points="310,503.5 310,590.5 " />
</g>

<g fill="#ffffff" fill-opacity="1" stroke="none" transform="matrix(1,0,0,1,0,0)"
font-family="Tahoma" font-size="12.5" font-weight="0" font-style="normal" 
>
<path vector-effect="none" fill-rule="evenodd" d="M240,504 L380,504 L380,590 L240,590 L240,504"/>
</g>

<g fill="#ffffff" fill-opacity="1" stroke="#000000" stroke-opacity="1" stroke-width="2" stroke-linecap="butt" stroke-linejoin="miter" stroke-miterlimit="2" transform="matrix(1,0,0,1,0,0)"
font-family="Tahoma" font-size="12.5" font-weight="0" font-style="normal" 
>
<polyline fill="none" vector-effect="none" points="310,503.5 310,520 " />
<polyline fill="none" vector-effect="none" points="307,508 310,520 " />
<polyline fill="none" vector-effect="none" points="310,520 313,508 " />
<path vector-effect="none" fill-rule="evenodd" d="M250,520 L370,520 L370,580 L250,580 L250,520"/>
<text fill="#000000" fill-opacity="1" stroke="none" xml:space="preserve" x="289" y="555" font-family="Tahoma" font-size="12.5" font-weight="0" font-style="normal" 
 >x := 10</text>
<polyline fill="none" vector-effect="none" points="310,580 310,590.5 " />
</g>

<g fill="#ffffff" fill-opacity="1" stroke="none" transform="matrix(1,0,0,1,0,0)"
font-family="Tahoma" font-size="12.5" font-weight="0" font-style="normal" 
>
<path vector-effect="none" fill-rule="evenodd" d="M400,504 L580,504 L580,590 L400,590 L400,504"/>
</g>

<g fill="#ffffff" fill-opacity="1" stroke="#000000" stroke-opacity="1" stroke-width="2" stroke-linecap="butt" stroke-linejoin="miter" stroke-miterlimit="2" transform="matrix(1,0,0,1,0,0)"
font-family="Tahoma" font-size="12.5" font-weight="0" font-style="normal" 
>
<polyline fill="none" vector-effect="none" points="490,503.5 490,590.5 " />
</g>

<g fill="#ffffff" fill-opacity="1" stroke="none" transform="matrix(1,0,0,1,0,0)"
font-family="Tahoma" font-size="12.5" font-weight="0" font-style="normal" 
>
<path vector-effect="none" fill-rule="evenodd" d="M420,504 L560,504 L560,590 L420,590 L420,504"/>
</g>

<g fill="#ffffff" fill-opacity="1" stroke="#000000" stroke-opacity="1" stroke-width="2" stroke-linecap="butt" stroke-linejoin="miter" stroke-miterlimit="2" transform="matrix(1,0,0,1,0,0)"
font-family="Tahoma" font-size="12.5" font-weight="0" font-style="normal" 
>
<polyline fill="none" vector-effect="none" points="490,503.5 490,520 " />
<polyline fill="none" vector-effect="none" points="487,508 490,520 " />
<polyline fill="none" vector-effect="none" points="490,520 493,508 " />
<path vector-effect="none" fill-rule="evenodd" d="M430,520 L550,520 L550,580 L430,580 L430,520"/>
<text fill="#000000" fill-opacity="1" stroke="none" xml:space="preserve" x="446.641" y="555" font-family="Tahoma" font-size="12.5" font-weight="0" font-style="normal" 
 >x := |8-x³|-10x</text>
<polyline fill="none" vector-effect="none" points="490,580 490,590.5 " />
</g>

<g fill="#ffffff" fill-opacity="1" stroke="none" transform="matrix(1,0,0,1,0,0)"
font-family="Tahoma" font-size="12.5" font-weight="0" font-style="normal" 
>
<path vector-effect="none" fill-rule="evenodd" d="M230,622 L390,622 L390,708 L230,708 L230,622"/>
</g>

<g fill="#ffffff" fill-opacity="1" stroke="#000000" stroke-opacity="1" stroke-width="2" stroke-linecap="butt" stroke-linejoin="miter" stroke-miterlimit="2" transform="matrix(1,0,0,1,0,0)"
font-family="Tahoma" font-size="12.5" font-weight="0" font-style="normal" 
>
<polyline fill="none" vector-effect="none" points="310,622 310,638 " />
<polyline fill="none" vector-effect="none" points="307,626 310,638 " />
<polyline fill="none" vector-effect="none" points="310,638 313,626 " />
<path vector-effect="none" fill-rule="evenodd" d="M265,638 L385,638 L355,698 L235,698 L265,638"/>
<text fill="#000000" fill-opacity="1" stroke="none" xml:space="preserve" x="296" y="673" font-family="Tahoma" font-size="12.5" font-weight="0" font-style="normal" 
 >x,  fx</text>
<polyline fill="none" vector-effect="none" points="310,698 310,708.5 " />
</g>

<g fill="#ffffff" fill-opacity="1" stroke="none" transform="matrix(1,0,0,1,0,0)"
font-family="Tahoma" font-size="12.5" font-weight="0" font-style="normal" 
>
<path vector-effect="none" fill-rule="evenodd" d="M240,708 L380,708 L380,794 L240,794 L240,708"/>
</g>

<g fill="#ffffff" fill-opacity="1" stroke="#000000" stroke-opacity="1" stroke-width="2" stroke-linecap="butt" stroke-linejoin="miter" stroke-miterlimit="2" transform="matrix(1,0,0,1,0,0)"
font-family="Tahoma" font-size="12.5" font-weight="0" font-style="normal" 
>
<polyline fill="none" vector-effect="none" points="310,707.5 310,724 " />
<polyline fill="none" vector-effect="none" points="307,712 310,724 " />
<polyline fill="none" vector-effect="none" points="310,724 313,712 " />
<path vector-effect="none" fill-rule="evenodd" d="M250,724 L370,724 L370,784 L250,784 L250,724"/>
<text fill="#000000" fill-opacity="1" stroke="none" xml:space="preserve" x="287.5" y="759" font-family="Tahoma" font-size="12.5" font-weight="0" font-style="normal" 
 >i := i+p</text>
<polyline fill="none" vector-effect="none" points="310,784 310,794.5 " />
</g>
</g>
</svg>
